<?xml version="1.0" standalone="no"?><!DOCTYPE svg PUBLIC "-//W3C//DTD SVG 1.1//EN" "http://www.w3.org/Graphics/SVG/1.1/DTD/svg11.dtd"><svg t="1515481141016" class="icon" style="" viewBox="0 0 1024 1024" version="1.1" xmlns="http://www.w3.org/2000/svg" p-id="1460" xmlns:xlink="http://www.w3.org/1999/xlink" width="200" height="200"><defs><style type="text/css"></style></defs><path d="M243.8 441.4c27.9 0 46.5 5.2 55.8 15.5 9.3 10.3 11.5 28 6.6 53.1-5.1 26.1-14.9 44.8-29.4 55.9-14.5 11.2-36.6 16.7-66.2 16.7H166l27.4-141.2h50.4zM64.7 725.6h73.5l17.4-89.7h63c27.8 0 50.6-2.9 68.6-8.8 17.9-5.8 34.2-15.6 48.9-29.4 12.3-11.3 22.3-23.8 29.9-37.5 7.6-13.6 13-28.7 16.2-45.2 7.8-40 1.9-71.2-17.6-93.5-19.5-22.3-50.5-33.5-93-33.5H130.3L64.7 725.6zM436.2 298.4h72.9l-17.4 89.7h65c40.9 0 69.1 7.1 84.6 21.4 15.5 14.3 20.2 37.4 14 69.3l-30.5 157h-74.1l29-149.3c3.3-17 2.1-28.6-3.6-34.7-5.7-6.2-17.9-9.3-36.6-9.3h-58.3l-37.6 193.3h-72.9l65.5-337.4zM817.5 441.4c27.9 0 46.5 5.2 55.8 15.5 9.3 10.3 11.5 28 6.6 53.1-5.1 26.1-14.9 44.8-29.4 55.9-14.5 11.2-36.6 16.7-66.2 16.7h-44.7L767 441.4h50.5zM638.4 725.6h73.5l17.4-89.7h63c27.8 0 50.6-2.9 68.6-8.8 17.9-5.8 34.2-15.6 48.9-29.4 12.3-11.3 22.3-23.8 29.9-37.5 7.6-13.6 13-28.7 16.2-45.2 7.8-40 1.9-71.2-17.6-93.5s-50.5-33.5-93-33.5H704l-65.6 337.6z" p-id="1461" fill="#ffffff"></path></svg>